<svg width="48" height="48" viewBox="0 0 48 48" fill="none" xmlns="http://www.w3.org/2000/svg">
<path d="M41.25 0H44.25L45.75 1L46.75 2.5L47 3.25V5.75L46 7.5L43.75 10L34.75 19H34.25L33.75 20L32.25 21.25L30.5 23.25L24.5 29.25L22.5 31L11 42.5L9.25 44.5L7.5 46.25L6 47H3L1 45.25L0 43.5V41.75L1.75 39L3.75 36.75H4.25L4.75 35.75L13.25 27.25L14.25 26L15.5 24.75H16L16.5 23.75L20.5 19.75L22.5 18L24.75 15.75H25.25L25.75 14.75L39.25 1.25L41.25 0Z" fill="white"/>
<path d="M41.75 18H43.5L45.5 19L46.75 20.5L47 21V24.25L46 25.75L43 29L37.75 34.25H37.25V34.75L35.25 36.5L32 39.75L31.75 40.25H31.25V40.75L26.25 45.75H25.75V46.25L24.5 47H21.25L19.75 46L18.5 44L18 43L18.25 41.75L19.75 39L30.75 28L31.75 26.75L33.5 25.25L35.25 23.25L36.5 22L39.25 19.5L41.75 18Z" fill="white"/>
<path d="M3.75 0H5.75L8.25 1.5L18 11.25L19.25 13.5V15.5L17 18.25L15.75 19.75L13.75 21.5L12.5 23L10.5 24.75L7.5 27.75L5 29L2.5 28.5L0.5 26.5L0 25.5V23.75L1.25 21.25L4.5 17.5L7.5 14.75L7.25 13.5L4.25 10.25L2.25 8.5L0.5 6L0.25 5.5V3.25L1.75 1.25L3.75 0Z" fill="white"/>
<path d="M42.5 36.25L44.25 36.5L46.25 37.5L47.25 39.5V42L46.25 44L45 45.25L43 47L42 47.25H39.5L38 46.5L36.75 44.5L36.5 43L37 40.75L38.5 38.5L41 36.75L42.5 36.25Z" fill="white"/>
</svg>
