<svg width="241" height="48" viewBox="0 0 241 48" fill="none" xmlns="http://www.w3.org/2000/svg">
<path d="M60.25 6.25H68.25L70 9L72 12.25L75.5 18L79 23.5L81.25 27L82 27.75L82.25 6.5L82.5 6.25H89V40.25L88.75 40.5H82.5L81.25 39.25L78.75 35.5L75.75 30.5L72.75 25.75L70.25 21.5L68 18L67.25 17L67 40.25L66.75 40.5H60.5L60.25 40.25V6.25Z" fill="#FEFEFE"/>
<path d="M185.5 5.75H192.5L196.75 7L199.5 9L201.5 11.25L201.75 13L199.25 14.75L197.75 15.75L196.75 16L195 13.75L192.5 12L190 11.5H187.5L185 12.25L182.75 13.75L181.5 15.25L180.5 17.75L180 19.75V26.75L181 30.5L182.5 32.75L183.75 33.75L186 34.75L187.5 35H189.5L191.75 34.5L194 33L195.25 31L195.5 30.25L195.75 27.25H188L187.5 27V21.5L188.25 21.25H202L202.25 21.5L202.5 40L202.25 40.5H196.25L196 40V36L194.75 37.25L193.5 38.75L191.25 40.25L189.5 40.75H183.25L180.75 40L178 38.25L176.25 36.5L174.25 32.5L173.25 30L172.75 27.25V19.75L173.25 16.75L175 12.75L177 10L179.5 8L182.5 6.5L185.5 5.75Z" fill="#FEFEFE"/>
<path d="M221.25 5.75H228L232 7L235 8.75L237.5 11.25L239.5 15.25L240.25 18.75V27.5L239.75 30.5L238.25 34L236.5 36.25L234 38.5L230.25 40.25L228 40.75H220.75L218 40L215.25 38.5L212.75 36.25L211 34L209.75 31.25L208.5 27V19.75L210 14.75L211.75 11.25L214 9L216.75 7.25L219.25 6.25L221.25 5.75ZM222.25 11.5L219.75 12.5L217.75 14.25L216.5 16.75L215.75 20.25V26.5L216.75 30.25L217.75 32L219 33.5L221.75 34.75L222.5 35H226.5L229.25 34L231.25 32.5L233 29L233.75 25.5V21.5L233 17.75L231.75 14.75L229.75 12.75L227.75 11.75L226.75 11.5H222.25Z" fill="#FEFEFE"/>
<path d="M97.75 6.25H120.75V11.5H104.75V19.75H118.25L118.5 20V25.25L118.25 25.5H104.75V34.75H121L121.25 35V40.25L121 40.5H98L97.75 40.25V6.25Z" fill="#FEFEFE"/>
<path d="M124.25 6.25H131.25L132.5 7.75L135.75 13.75L137.75 17L138.25 18.25L139 18L140.75 15.25L145.75 6.75L146 6.25H153L151.5 9.25L148.5 14.25L144 22.25L144.25 23.75L147 28.75L150.5 34.75L153.25 39.5L153.5 40.5H146.5L145 38.25L142.75 34.25L139.5 28.75L138.75 27.75V27.25H138L137.5 28.75L135.5 32L132.5 37.5L130.75 40.25L130.5 40.5H124L123.75 40L127.25 34L131.25 27L133.5 23.25L132.75 21L130.75 17.75L127 11.25L124.5 7.25L124.25 6.25Z" fill="#FEFEFE"/>
<path d="M158.75 6.25H165.5V40.25L165.25 40.5H159L158.75 40.25V6.25Z" fill="#FEFEFE"/>
<path d="M41.25 0H44.25L45.75 1L46.75 2.5L47 3.25V5.75L46 7.5L43.75 10L34.75 19H34.25L33.75 20L32.25 21.25L30.5 23.25L24.5 29.25L22.5 31L11 42.5L9.25 44.5L7.5 46.25L6 47H3L1 45.25L0 43.5V41.75L1.75 39L3.75 36.75H4.25L4.75 35.75L13.25 27.25L14.25 26L15.5 24.75H16L16.5 23.75L20.5 19.75L22.5 18L24.75 15.75H25.25L25.75 14.75L39.25 1.25L41.25 0Z" fill="white"/>
<path d="M41.75 18H43.5L45.5 19L46.75 20.5L47 21V24.25L46 25.75L43 29L37.75 34.25H37.25V34.75L35.25 36.5L32 39.75L31.75 40.25H31.25V40.75L26.25 45.75H25.75V46.25L24.5 47H21.25L19.75 46L18.5 44L18 43L18.25 41.75L19.75 39L30.75 28L31.75 26.75L33.5 25.25L35.25 23.25L36.5 22L39.25 19.5L41.75 18Z" fill="white"/>
<path d="M3.75 0H5.75L8.25 1.5L18 11.25L19.25 13.5V15.5L17 18.25L15.75 19.75L13.75 21.5L12.5 23L10.5 24.75L7.5 27.75L5 29L2.5 28.5L0.5 26.5L0 25.5V23.75L1.25 21.25L4.5 17.5L7.5 14.75L7.25 13.5L4.25 10.25L2.25 8.5L0.5 6L0.25 5.5V3.25L1.75 1.25L3.75 0Z" fill="white"/>
<path d="M42.5 36.25L44.25 36.5L46.25 37.5L47.25 39.5V42L46.25 44L45 45.25L43 47L42 47.25H39.5L38 46.5L36.75 44.5L36.5 43L37 40.75L38.5 38.5L41 36.75L42.5 36.25Z" fill="white"/>
</svg>
