<svg width="900" height="300" viewBox="0 0 900 300" fill="none" xmlns="http://www.w3.org/2000/svg">
<g clip-path="url(#clip0_150_260)">
<rect width="900" height="300" fill="#1C1C1C"/>
<path d="M200 203.897C292.804 168.556 417.31 194.807 499.383 242.095C572.065 283.972 632.498 348.254 658.951 425.74C673.296 467.763 672.597 552.444 600 531.813C529.203 511.694 476.027 437.879 441.358 381.371C403.027 318.894 352.437 224.799 372.531 148.656C390.197 81.7121 469.541 36.9275 530.864 12.3184C614.488 -21.2395 691.789 -8.73964 758.025 49.9289C788.991 77.3574 906.491 241.73 795.062 250.91C750.917 254.547 702.067 219.217 670.679 195.082C618.953 155.308 599.005 112.412 616.358 49.6351C636.71 -23.9901 716.576 -100.596 799.383 -110.209C840.467 -114.979 886.842 -98.1322 900 -60.5519" stroke="white" stroke-opacity="0.03" stroke-width="71" stroke-linecap="square"/>
<path d="M66.7999 144V114.304H89.4537V119.267H72.4846V126.819H83.6842V131.613H72.4846V144H66.7999ZM94.9959 119.14C93.2565 119.14 91.8566 117.74 91.8566 116.043C91.8566 114.304 93.2565 112.946 94.9959 112.946C96.6928 112.946 98.0927 114.304 98.0927 116.043C98.0927 117.74 96.6928 119.14 94.9959 119.14ZM92.2808 144V122.025H97.6685V144H92.2808ZM102.03 144V122.025H107.417V123.934C109.072 122.407 111.236 121.601 113.696 121.601C118.787 121.601 122.35 125.207 122.35 130.34V144H117.005V131.146C117.005 128.134 115.096 126.267 112.169 126.267C110.133 126.267 108.478 127.116 107.417 128.643V144H102.03ZM136.708 144.297C130.472 144.297 125.593 139.333 125.593 133.012C125.593 126.649 130.514 121.728 136.877 121.728C139.083 121.728 141.247 122.364 143.029 123.595V114.304L148.417 113.371V144H143.071V142.091C141.332 143.533 139.126 144.297 136.708 144.297ZM137.556 139.715C139.762 139.715 141.671 138.909 143.029 137.424V128.516C141.714 127.116 139.72 126.31 137.556 126.31C133.781 126.31 130.853 129.194 130.853 132.97C130.853 136.788 133.781 139.715 137.556 139.715ZM161.064 152.654V122.025H166.367V123.934C168.148 122.492 170.354 121.728 172.73 121.728C179.009 121.728 183.887 126.691 183.887 133.012C183.887 139.376 178.966 144.297 172.603 144.297C170.354 144.297 168.233 143.661 166.452 142.43V152.654H161.064ZM171.924 139.715C175.742 139.715 178.627 136.831 178.627 133.055C178.627 129.237 175.7 126.352 171.924 126.352C169.718 126.352 167.767 127.116 166.452 128.601V137.509C167.767 138.909 169.761 139.715 171.924 139.715ZM187.26 144V122.025H192.648V124.57C194.048 122.619 196.084 121.558 198.544 121.558C199.69 121.558 200.284 121.686 200.92 121.983V126.734C200.072 126.395 199.053 126.182 198.078 126.182C195.702 126.182 193.793 127.413 192.648 129.619V144H187.26ZM213.498 144.424C206.965 144.424 201.875 139.418 201.875 133.055C201.875 126.649 206.965 121.643 213.498 121.643C220.032 121.643 225.165 126.649 225.165 133.055C225.165 139.418 220.032 144.424 213.498 144.424ZM213.498 139.758C217.104 139.758 219.904 136.788 219.904 133.055C219.904 129.237 217.062 126.31 213.498 126.31C209.935 126.31 207.135 129.237 207.135 133.055C207.135 136.788 209.935 139.758 213.498 139.758ZM238.647 144.297C232.411 144.297 227.532 139.333 227.532 133.012C227.532 126.649 232.453 121.728 238.817 121.728C241.023 121.728 243.186 122.364 244.968 123.595V114.304L250.356 113.371V144H245.01V142.091C243.271 143.533 241.065 144.297 238.647 144.297ZM239.495 139.715C241.701 139.715 243.61 138.909 244.968 137.424V128.516C243.653 127.116 241.659 126.31 239.495 126.31C235.72 126.31 232.793 129.194 232.793 132.97C232.793 136.788 235.72 139.715 239.495 139.715ZM263.231 144.424C258.14 144.424 254.577 140.861 254.577 135.728V122.025H259.922V134.879C259.922 137.891 261.831 139.8 264.758 139.8C266.837 139.8 268.449 138.909 269.51 137.382V122.025H274.897V144H269.51V142.091C267.855 143.618 265.734 144.424 263.231 144.424ZM289.721 144.424C283.273 144.424 278.267 139.461 278.267 133.012C278.267 126.607 283.273 121.601 289.721 121.601C293.158 121.601 296.467 123.001 298.715 125.461L295.406 128.982C293.794 127.201 291.927 126.31 289.806 126.31C286.285 126.31 283.57 129.237 283.57 133.012C283.57 136.831 286.328 139.715 289.934 139.715C291.97 139.715 293.709 138.909 295.364 137.17L298.588 140.564C296.297 142.982 293.073 144.424 289.721 144.424ZM311.932 144.339C307.223 144.339 304.763 142.176 304.763 138.018V126.522H300.224V122.025H304.763V116.425L310.108 115.195V122.025H316.472V126.522H310.108V136.873C310.108 138.994 310.957 139.8 313.205 139.8C314.351 139.8 315.199 139.673 316.302 139.291V143.703C315.114 144.085 313.205 144.339 311.932 144.339ZM327.557 144.424C323.569 144.424 320.091 143.321 317.588 141.327L320.303 137.764C322.806 139.503 325.096 140.352 327.472 140.352C330.187 140.352 331.969 139.291 331.969 137.764C331.969 136.491 331.078 135.77 329.042 135.473L324.884 134.879C320.515 134.2 318.266 132.037 318.266 128.516C318.266 124.358 321.745 121.643 327.26 121.643C330.442 121.643 333.496 122.576 336.211 124.401L333.581 127.922C331.205 126.437 329.042 125.716 326.751 125.716C324.545 125.716 323.06 126.691 323.06 128.091C323.06 129.449 323.951 130.085 326.199 130.425L330.357 131.019C334.684 131.655 337.06 133.819 337.06 137.255C337.06 141.37 332.987 144.424 327.557 144.424ZM69.6847 189V171.522H64.7636V167.025H69.6847V164.607C69.6847 159.771 72.5694 157.098 77.7874 157.098C78.9753 157.098 80.248 157.268 81.1388 157.522V162.061C80.1207 161.807 79.3571 161.722 78.4662 161.722C76.1754 161.722 75.0724 162.655 75.0724 164.734V167.025H81.1388V171.522H75.0724V189H69.6847ZM83.8708 189V167.025H89.2585V169.57C90.6585 167.619 92.6948 166.558 95.1553 166.558C96.3007 166.558 96.8946 166.686 97.531 166.983V171.734C96.6825 171.395 95.6644 171.182 94.6886 171.182C92.3129 171.182 90.4039 172.413 89.2585 174.619V189H83.8708ZM110.109 189.424C103.576 189.424 98.4855 184.418 98.4855 178.055C98.4855 171.649 103.576 166.643 110.109 166.643C116.642 166.643 121.776 171.649 121.776 178.055C121.776 184.418 116.642 189.424 110.109 189.424ZM110.109 184.758C113.715 184.758 116.515 181.788 116.515 178.055C116.515 174.237 113.673 171.31 110.109 171.31C106.546 171.31 103.746 174.237 103.746 178.055C103.746 181.788 106.546 184.758 110.109 184.758ZM125.119 189V167.025H130.506V168.849C132.076 167.364 134.07 166.601 136.361 166.601C139.246 166.601 141.579 167.873 143.021 169.995C144.845 167.789 147.306 166.601 150.318 166.601C155.239 166.601 158.675 170.207 158.675 175.34V189H153.33V176.146C153.33 173.134 151.591 171.267 148.918 171.267C147.051 171.267 145.524 172.073 144.464 173.643C144.506 174.194 144.591 174.746 144.591 175.34V189H139.203V176.146C139.203 173.134 137.506 171.267 134.834 171.267C133.009 171.267 131.525 171.988 130.506 173.473V189H125.119Z" fill="white"/>
<path d="M178.341 189L168.923 167.025H174.777L181.014 182.17L187.25 167.025H192.977L183.559 189H178.341ZM205.16 189.424C198.542 189.424 193.451 184.418 193.451 178.012C193.451 171.649 198.372 166.686 204.651 166.686C210.845 166.686 215.469 171.691 215.469 178.394V179.794H198.881C199.603 182.764 202.148 184.885 205.415 184.885C207.408 184.885 209.233 184.206 210.421 183.061L213.942 186.327C211.269 188.449 208.596 189.424 205.16 189.424ZM198.839 175.934H210.166C209.53 173.134 207.281 171.14 204.524 171.14C201.681 171.14 199.518 173.007 198.839 175.934ZM218.842 189V167.025H224.229V169.57C225.629 167.619 227.666 166.558 230.126 166.558C231.272 166.558 231.866 166.686 232.502 166.983V171.734C231.653 171.395 230.635 171.182 229.66 171.182C227.284 171.182 225.375 172.413 224.229 174.619V189H218.842ZM238.142 164.14C236.402 164.14 235.002 162.74 235.002 161.043C235.002 159.304 236.402 157.946 238.142 157.946C239.838 157.946 241.238 159.304 241.238 161.043C241.238 162.74 239.838 164.14 238.142 164.14ZM235.426 189V167.025H240.814V189H235.426ZM248.527 189V171.522H243.606V167.025H248.527V164.607C248.527 159.771 251.412 157.098 256.63 157.098C257.817 157.098 259.09 157.268 259.981 157.522V162.061C258.963 161.807 258.199 161.722 257.308 161.722C255.018 161.722 253.915 162.655 253.915 164.734V167.025H259.981V171.522H253.915V189H248.527ZM265.751 164.14C264.054 164.14 262.654 162.74 262.654 161.043C262.654 159.304 264.054 157.946 265.751 157.946C267.49 157.946 268.847 159.304 268.847 161.043C268.847 162.74 267.49 164.14 265.751 164.14ZM263.078 189V167.025H268.423V189H263.078ZM283.43 189.424C276.812 189.424 271.722 184.418 271.722 178.012C271.722 171.649 276.643 166.686 282.921 166.686C289.115 166.686 293.739 171.691 293.739 178.394V179.794H277.152C277.873 182.764 280.418 184.885 283.685 184.885C285.679 184.885 287.503 184.206 288.691 183.061L292.212 186.327C289.539 188.449 286.866 189.424 283.43 189.424ZM277.109 175.934H288.436C287.8 173.134 285.551 171.14 282.794 171.14C279.952 171.14 277.788 173.007 277.109 175.934ZM307.375 189.297C301.139 189.297 296.261 184.333 296.261 178.012C296.261 171.649 301.182 166.728 307.545 166.728C309.751 166.728 311.915 167.364 313.696 168.595V159.304L319.084 158.371V189H313.739V187.091C311.999 188.533 309.793 189.297 307.375 189.297ZM308.224 184.715C310.43 184.715 312.339 183.909 313.696 182.424V173.516C312.381 172.116 310.387 171.31 308.224 171.31C304.448 171.31 301.521 174.194 301.521 177.97C301.521 181.788 304.448 184.715 308.224 184.715ZM331.731 189V167.025H337.119V168.849C338.689 167.364 340.683 166.601 342.973 166.601C345.858 166.601 348.191 167.873 349.634 169.995C351.458 167.789 353.918 166.601 356.93 166.601C361.852 166.601 365.288 170.207 365.288 175.34V189H359.942V176.146C359.942 173.134 358.203 171.267 355.531 171.267C353.664 171.267 352.137 172.073 351.076 173.643C351.119 174.194 351.203 174.746 351.203 175.34V189H345.816V176.146C345.816 173.134 344.119 171.267 341.446 171.267C339.622 171.267 338.137 171.988 337.119 173.473V189H331.731ZM380.26 189.424C373.642 189.424 368.552 184.418 368.552 178.012C368.552 171.649 373.473 166.686 379.751 166.686C385.945 166.686 390.569 171.691 390.569 178.394V179.794H373.982C374.703 182.764 377.248 184.885 380.515 184.885C382.509 184.885 384.333 184.206 385.521 183.061L389.042 186.327C386.369 188.449 383.697 189.424 380.26 189.424ZM373.939 175.934H385.266C384.63 173.134 382.382 171.14 379.624 171.14C376.782 171.14 374.618 173.007 373.939 175.934ZM393.942 189V167.025H399.33V169.57C400.73 167.619 402.766 166.558 405.227 166.558C406.372 166.558 406.966 166.686 407.602 166.983V171.734C406.754 171.395 405.736 171.182 404.76 171.182C402.384 171.182 400.475 172.413 399.33 174.619V189H393.942ZM420.011 189.424C413.563 189.424 408.557 184.461 408.557 178.012C408.557 171.607 413.563 166.601 420.011 166.601C423.447 166.601 426.756 168.001 429.005 170.461L425.696 173.982C424.084 172.201 422.217 171.31 420.096 171.31C416.575 171.31 413.86 174.237 413.86 178.012C413.86 181.831 416.617 184.715 420.223 184.715C422.259 184.715 423.999 183.909 425.653 182.17L428.877 185.564C426.586 187.982 423.362 189.424 420.011 189.424ZM431.669 189V159.304L437.056 158.116V168.934C438.711 167.407 440.874 166.601 443.335 166.601C448.426 166.601 451.989 170.207 451.989 175.34V189H446.644V176.146C446.644 173.134 444.735 171.267 441.808 171.267C439.771 171.267 438.117 172.116 437.056 173.643V189H431.669ZM463.207 189.382C458.456 189.382 455.189 186.624 455.189 182.637C455.189 178.479 458.498 176.019 464.098 176.019C466.05 176.019 467.959 176.316 469.656 176.952V175.17C469.656 172.455 468.001 171.098 464.819 171.098C462.953 171.098 460.874 171.649 458.117 172.922L456.165 168.934C459.559 167.364 462.613 166.601 465.71 166.601C471.607 166.601 474.958 169.528 474.958 174.661V189H469.656V187.346C467.789 188.745 465.71 189.382 463.207 189.382ZM460.28 182.552C460.28 184.333 461.977 185.479 464.565 185.479C466.559 185.479 468.256 184.97 469.656 183.867V180.558C468.171 179.879 466.601 179.582 464.777 179.582C461.977 179.582 460.28 180.685 460.28 182.552ZM479.172 189V167.025H484.56V168.934C486.214 167.407 488.378 166.601 490.839 166.601C495.929 166.601 499.493 170.207 499.493 175.34V189H494.148V176.146C494.148 173.134 492.239 171.267 489.311 171.267C487.275 171.267 485.621 172.116 484.56 173.643V189H479.172ZM513.229 189.339C508.52 189.339 506.059 187.176 506.059 183.018V171.522H501.52V167.025H506.059V161.425L511.405 160.195V167.025H517.768V171.522H511.405V181.873C511.405 183.994 512.253 184.8 514.502 184.8C515.647 184.8 516.495 184.673 517.598 184.291V188.703C516.411 189.085 514.502 189.339 513.229 189.339ZM528.853 189.424C524.866 189.424 521.387 188.321 518.884 186.327L521.599 182.764C524.102 184.503 526.393 185.352 528.769 185.352C531.484 185.352 533.265 184.291 533.265 182.764C533.265 181.491 532.375 180.77 530.338 180.473L526.181 179.879C521.811 179.2 519.563 177.037 519.563 173.516C519.563 169.358 523.041 166.643 528.556 166.643C531.738 166.643 534.793 167.576 537.508 169.401L534.877 172.922C532.502 171.437 530.338 170.716 528.047 170.716C525.841 170.716 524.357 171.691 524.357 173.091C524.357 174.449 525.247 175.085 527.496 175.425L531.653 176.019C535.98 176.655 538.356 178.819 538.356 182.255C538.356 186.37 534.284 189.424 528.853 189.424Z" fill="#FFE11B"/>
<rect x="349" y="111" width="171" height="37" rx="18.5" fill="#333333"/>
<path d="M500.332 126.521C500.355 126.347 500.367 126.173 500.367 126C500.367 123.621 498.224 121.712 495.846 122.035C495.153 120.802 493.833 120 492.367 120C490.901 120 489.581 120.802 488.888 122.035C486.505 121.712 484.367 123.621 484.367 126C484.367 126.173 484.379 126.347 484.402 126.521C483.169 127.215 482.367 128.535 482.367 130C482.367 131.465 483.169 132.785 484.402 133.479C484.379 133.652 484.367 133.826 484.367 134C484.367 136.379 486.505 138.283 488.888 137.965C489.581 139.198 490.901 140 492.367 140C493.833 140 495.153 139.198 495.846 137.965C498.224 138.283 500.367 136.379 500.367 134C500.367 133.827 500.355 133.653 500.332 133.479C501.565 132.785 502.367 131.465 502.367 130C502.367 128.535 501.565 127.215 500.332 126.521ZM491.322 134.416L487.655 130.702L489.079 129.298L491.336 131.584L495.663 127.29L497.071 128.71L491.322 134.416Z" fill="#FFE11B"/>
<path d="M370.99 135L367 125.2H368.736L371.97 133.39L375.274 125.2H376.926L372.88 135H370.99ZM380.211 135.126C378.097 135.126 376.431 133.516 376.431 131.416C376.431 129.344 378.027 127.706 380.057 127.706C382.045 127.706 383.543 129.358 383.543 131.5V131.92H377.985C378.195 133.026 379.119 133.824 380.281 133.824C380.967 133.824 381.611 133.614 382.045 133.222L383.025 134.16C382.185 134.832 381.317 135.126 380.211 135.126ZM377.985 130.786H382.031C381.821 129.75 381.009 128.994 380.029 128.994C378.993 128.994 378.181 129.722 377.985 130.786ZM384.833 135V127.832H386.359V128.728C386.807 128.056 387.479 127.664 388.319 127.664C388.641 127.678 388.851 127.706 389.047 127.804V129.162C388.781 129.05 388.487 128.994 388.179 128.994C387.381 128.994 386.723 129.442 386.359 130.24V135H384.833ZM390.908 126.754C390.418 126.754 389.998 126.334 389.998 125.83C389.998 125.326 390.418 124.906 390.908 124.906C391.426 124.906 391.832 125.326 391.832 125.83C391.832 126.334 391.426 126.754 390.908 126.754ZM390.152 135V127.832H391.678V135H390.152ZM394.374 135V129.12H392.722V127.832H394.374V126.852C394.374 125.326 395.256 124.5 396.88 124.5C397.258 124.5 397.622 124.528 397.916 124.626V125.928C397.58 125.844 397.356 125.802 397.034 125.802C396.264 125.802 395.886 126.152 395.886 126.88V127.832H397.916V129.12H395.886V135H394.374ZM399.736 126.754C399.232 126.754 398.812 126.334 398.812 125.83C398.812 125.326 399.232 124.906 399.736 124.906C400.24 124.906 400.66 125.326 400.66 125.83C400.66 126.334 400.24 126.754 399.736 126.754ZM398.966 135V127.832H400.506V135H398.966ZM405.531 135.126C403.417 135.126 401.751 133.516 401.751 131.416C401.751 129.344 403.347 127.706 405.377 127.706C407.365 127.706 408.863 129.358 408.863 131.5V131.92H403.305C403.515 133.026 404.439 133.824 405.601 133.824C406.287 133.824 406.931 133.614 407.365 133.222L408.345 134.16C407.505 134.832 406.637 135.126 405.531 135.126ZM403.305 130.786H407.351C407.141 129.75 406.329 128.994 405.349 128.994C404.313 128.994 403.501 129.722 403.305 130.786ZM413.485 135.112C411.455 135.112 409.845 133.488 409.845 131.402C409.845 129.344 411.455 127.72 413.513 127.72C414.283 127.72 415.011 127.958 415.613 128.392V125.2L417.139 124.92V135H415.641V134.342C415.039 134.846 414.297 135.112 413.485 135.112ZM413.695 133.782C414.479 133.782 415.165 133.488 415.613 132.97V129.848C415.165 129.344 414.465 129.036 413.695 129.036C412.365 129.036 411.357 130.044 411.357 131.402C411.357 132.746 412.379 133.782 413.695 133.782ZM421.666 135V127.832H423.192V128.728C423.64 128.056 424.312 127.664 425.152 127.664C425.474 127.678 425.684 127.706 425.88 127.804V129.162C425.614 129.05 425.32 128.994 425.012 128.994C424.214 128.994 423.556 129.442 423.192 130.24V135H421.666ZM430.045 135.126C427.931 135.126 426.265 133.516 426.265 131.416C426.265 129.344 427.861 127.706 429.891 127.706C431.879 127.706 433.377 129.358 433.377 131.5V131.92H427.819C428.029 133.026 428.953 133.824 430.115 133.824C430.801 133.824 431.445 133.614 431.879 133.222L432.859 134.16C432.019 134.832 431.151 135.126 430.045 135.126ZM427.819 130.786H431.865C431.655 129.75 430.843 128.994 429.863 128.994C428.827 128.994 428.015 129.722 427.819 130.786ZM437.242 135.14C435.996 135.14 434.862 134.776 434.078 134.104L434.89 133.082C435.646 133.67 436.416 133.964 437.214 133.964C438.18 133.964 438.852 133.572 438.852 132.97C438.852 132.494 438.502 132.228 437.76 132.116L436.444 131.92C435.016 131.724 434.288 131.038 434.288 129.89C434.288 128.588 435.436 127.706 437.144 127.706C438.194 127.706 439.146 128 440.042 128.616L439.286 129.61C438.488 129.106 437.774 128.882 437.032 128.882C436.206 128.882 435.66 129.246 435.66 129.792C435.66 130.282 435.982 130.534 436.794 130.646L438.11 130.842C439.538 131.038 440.28 131.738 440.28 132.858C440.28 134.16 438.978 135.14 437.242 135.14ZM444.838 135.126C442.724 135.126 441.058 133.516 441.058 131.416C441.058 129.344 442.654 127.706 444.684 127.706C446.672 127.706 448.17 129.358 448.17 131.5V131.92H442.612C442.822 133.026 443.746 133.824 444.908 133.824C445.594 133.824 446.238 133.614 446.672 133.222L447.652 134.16C446.812 134.832 445.944 135.126 444.838 135.126ZM442.612 130.786H446.658C446.448 129.75 445.636 128.994 444.656 128.994C443.62 128.994 442.808 129.722 442.612 130.786ZM449.46 135V125.2L450.986 124.92V135H449.46ZM452.605 135V125.2L454.131 124.92V135H452.605ZM459.194 135.126C457.08 135.126 455.414 133.516 455.414 131.416C455.414 129.344 457.01 127.706 459.04 127.706C461.028 127.706 462.526 129.358 462.526 131.5V131.92H456.968C457.178 133.026 458.102 133.824 459.264 133.824C459.95 133.824 460.594 133.614 461.028 133.222L462.007 134.16C461.168 134.832 460.3 135.126 459.194 135.126ZM456.968 130.786H461.014C460.804 129.75 459.992 128.994 459.012 128.994C457.976 128.994 457.164 129.722 456.968 130.786ZM463.816 135V127.832H465.342V128.728C465.79 128.056 466.462 127.664 467.302 127.664C467.624 127.678 467.834 127.706 468.03 127.804V129.162C467.764 129.05 467.47 128.994 467.162 128.994C466.364 128.994 465.706 129.442 465.342 130.24V135H463.816Z" fill="white"/>
</g>
<defs>
<clipPath id="clip0_150_260">
<rect width="900" height="300" fill="white"/>
</clipPath>
</defs>
</svg>
