<svg width="900" height="300" viewBox="0 0 900 300" fill="none" xmlns="http://www.w3.org/2000/svg">
<rect width="900" height="300" fill="#B2A092"/>
<path d="M55.64 139V111H68.48C74.08 111 77.88 114.08 77.88 118.6C77.88 121.16 76.48 123.24 74.24 124.56C77.08 125.76 78.84 128.08 78.84 130.92C78.84 135.76 74.96 139 69.08 139H55.64ZM61 122.56H68.16C70.84 122.56 72.52 121.2 72.52 119C72.52 116.84 70.84 115.44 68.16 115.44H61V122.56ZM61 134.56H68.68C71.56 134.56 73.44 133 73.44 130.64C73.44 128.28 71.56 126.76 68.68 126.76H61V134.56ZM92.0513 139.4C85.8113 139.4 81.0113 134.68 81.0113 128.64C81.0113 122.64 85.6513 117.96 91.5713 117.96C97.4113 117.96 101.771 122.68 101.771 129V130.32H86.1313C86.8113 133.12 89.2113 135.12 92.2913 135.12C94.1713 135.12 95.8913 134.48 97.0113 133.4L100.331 136.48C97.8113 138.48 95.2913 139.4 92.0513 139.4ZM86.0913 126.68H96.7713C96.1713 124.04 94.0513 122.16 91.4513 122.16C88.7713 122.16 86.7313 123.92 86.0913 126.68ZM114.949 139.4C108.869 139.4 104.149 134.72 104.149 128.64C104.149 122.6 108.869 117.88 114.949 117.88C118.189 117.88 121.309 119.2 123.429 121.52L120.309 124.84C118.789 123.16 117.029 122.32 115.029 122.32C111.709 122.32 109.149 125.08 109.149 128.64C109.149 132.24 111.749 134.96 115.149 134.96C117.069 134.96 118.709 134.2 120.269 132.56L123.309 135.76C121.149 138.04 118.109 139.4 114.949 139.4ZM135.395 139.4C129.235 139.4 124.435 134.68 124.435 128.68C124.435 122.64 129.235 117.92 135.395 117.92C141.555 117.92 146.395 122.64 146.395 128.68C146.395 134.68 141.555 139.4 135.395 139.4ZM135.395 135C138.795 135 141.435 132.2 141.435 128.68C141.435 125.08 138.755 122.32 135.395 122.32C132.035 122.32 129.395 125.08 129.395 128.68C129.395 132.2 132.035 135 135.395 135ZM149.547 139V118.28H154.627V120C156.107 118.6 157.987 117.88 160.147 117.88C162.867 117.88 165.067 119.08 166.427 121.08C168.147 119 170.467 117.88 173.307 117.88C177.947 117.88 181.187 121.28 181.187 126.12V139H176.147V126.88C176.147 124.04 174.507 122.28 171.987 122.28C170.227 122.28 168.787 123.04 167.787 124.52C167.827 125.04 167.907 125.56 167.907 126.12V139H162.827V126.88C162.827 124.04 161.227 122.28 158.707 122.28C156.987 122.28 155.587 122.96 154.627 124.36V139H149.547ZM195.304 139.4C189.064 139.4 184.264 134.68 184.264 128.64C184.264 122.64 188.904 117.96 194.824 117.96C200.664 117.96 205.024 122.68 205.024 129V130.32H189.384C190.064 133.12 192.464 135.12 195.544 135.12C197.424 135.12 199.144 134.48 200.264 133.4L203.584 136.48C201.064 138.48 198.544 139.4 195.304 139.4ZM189.344 126.68H200.024C199.424 124.04 197.304 122.16 194.704 122.16C192.024 122.16 189.984 123.92 189.344 126.68ZM226.07 139.4C219.91 139.4 215.11 134.68 215.11 128.68C215.11 122.64 219.91 117.92 226.07 117.92C232.23 117.92 237.07 122.64 237.07 128.68C237.07 134.68 232.23 139.4 226.07 139.4ZM226.07 135C229.47 135 232.11 132.2 232.11 128.68C232.11 125.08 229.43 122.32 226.07 122.32C222.71 122.32 220.07 125.08 220.07 128.68C220.07 132.2 222.71 135 226.07 135ZM248.262 139.4C243.462 139.4 240.102 136.04 240.102 131.2V118.28H245.142V130.4C245.142 133.24 246.942 135.04 249.702 135.04C251.662 135.04 253.182 134.2 254.182 132.76V118.28H259.262V139H254.182V137.2C252.622 138.64 250.622 139.4 248.262 139.4ZM263.359 139V118.28H268.439V120.68C269.759 118.84 271.679 117.84 273.999 117.84C275.079 117.84 275.639 117.96 276.239 118.24V122.72C275.439 122.4 274.479 122.2 273.559 122.2C271.319 122.2 269.519 123.36 268.439 125.44V139H263.359ZM65.24 186.4C59.08 186.4 54.28 181.68 54.28 175.68C54.28 169.64 59.08 164.92 65.24 164.92C71.4 164.92 76.24 169.64 76.24 175.68C76.24 181.68 71.4 186.4 65.24 186.4ZM65.24 182C68.64 182 71.28 179.2 71.28 175.68C71.28 172.08 68.6 169.32 65.24 169.32C61.88 169.32 59.24 172.08 59.24 175.68C59.24 179.2 61.88 182 65.24 182ZM81.6147 186V169.52H76.9747V165.28H81.6147V163C81.6147 158.44 84.3347 155.92 89.2547 155.92C90.3747 155.92 91.5747 156.08 92.4147 156.32V160.6C91.4547 160.36 90.7347 160.28 89.8947 160.28C87.7347 160.28 86.6947 161.16 86.6947 163.12V165.28H92.4147V169.52H86.6947V186H81.6147ZM98.3069 186V169.52H93.6669V165.28H98.3069V163C98.3069 158.44 101.027 155.92 105.947 155.92C107.067 155.92 108.267 156.08 109.107 156.32V160.6C108.147 160.36 107.427 160.28 106.587 160.28C104.427 160.28 103.387 161.16 103.387 163.12V165.28H109.107V169.52H103.387V186H98.3069ZM114.547 162.56C112.947 162.56 111.627 161.24 111.627 159.64C111.627 158 112.947 156.72 114.547 156.72C116.187 156.72 117.467 158 117.467 159.64C117.467 161.24 116.187 162.56 114.547 162.56ZM112.027 186V165.28H117.067V186H112.027ZM130.977 186.4C124.897 186.4 120.177 181.72 120.177 175.64C120.177 169.6 124.897 164.88 130.977 164.88C134.217 164.88 137.337 166.2 139.457 168.52L136.337 171.84C134.817 170.16 133.057 169.32 131.057 169.32C127.737 169.32 125.177 172.08 125.177 175.64C125.177 179.24 127.777 181.96 131.177 181.96C133.097 181.96 134.737 181.2 136.297 179.56L139.337 182.76C137.177 185.04 134.137 186.4 130.977 186.4ZM144.529 162.56C142.889 162.56 141.569 161.24 141.569 159.64C141.569 158 142.889 156.72 144.529 156.72C146.129 156.72 147.449 158 147.449 159.64C147.449 161.24 146.129 162.56 144.529 162.56ZM141.969 186V165.28H147.049V186H141.969ZM157.761 186.36C153.281 186.36 150.201 183.76 150.201 180C150.201 176.08 153.321 173.76 158.601 173.76C160.441 173.76 162.241 174.04 163.841 174.64V172.96C163.841 170.4 162.281 169.12 159.281 169.12C157.521 169.12 155.561 169.64 152.961 170.84L151.121 167.08C154.321 165.6 157.201 164.88 160.121 164.88C165.681 164.88 168.841 167.64 168.841 172.48V186H163.841V184.44C162.081 185.76 160.121 186.36 157.761 186.36ZM155.001 179.92C155.001 181.6 156.601 182.68 159.041 182.68C160.921 182.68 162.521 182.2 163.841 181.16V178.04C162.441 177.4 160.961 177.12 159.241 177.12C156.601 177.12 155.001 178.16 155.001 179.92ZM172.814 186V158L177.894 157.12V186H172.814ZM189.831 186V165.28H194.911V167.68C196.231 165.84 198.151 164.84 200.471 164.84C201.551 164.84 202.111 164.96 202.711 165.24V169.72C201.911 169.4 200.951 169.2 200.031 169.2C197.791 169.2 195.991 170.36 194.911 172.44V186H189.831ZM214.651 186.4C208.411 186.4 203.611 181.68 203.611 175.64C203.611 169.64 208.251 164.96 214.171 164.96C220.011 164.96 224.371 169.68 224.371 176V177.32H208.731C209.411 180.12 211.811 182.12 214.891 182.12C216.771 182.12 218.491 181.48 219.611 180.4L222.931 183.48C220.411 185.48 217.891 186.4 214.651 186.4ZM208.691 173.68H219.371C218.771 171.04 216.651 169.16 214.051 169.16C211.371 169.16 209.331 170.92 208.691 173.68ZM236.526 186.32C232.086 186.32 229.766 184.28 229.766 180.36V169.52H225.486V165.28H229.766V160L234.806 158.84V165.28H240.806V169.52H234.806V179.28C234.806 181.28 235.606 182.04 237.726 182.04C238.806 182.04 239.606 181.92 240.646 181.56V185.72C239.526 186.08 237.726 186.32 236.526 186.32ZM249.867 186.36C245.387 186.36 242.307 183.76 242.307 180C242.307 176.08 245.427 173.76 250.707 173.76C252.547 173.76 254.347 174.04 255.947 174.64V172.96C255.947 170.4 254.387 169.12 251.387 169.12C249.627 169.12 247.667 169.64 245.067 170.84L243.227 167.08C246.427 165.6 249.307 164.88 252.227 164.88C257.787 164.88 260.947 167.64 260.947 172.48V186H255.947V184.44C254.187 185.76 252.227 186.36 249.867 186.36ZM247.107 179.92C247.107 181.6 248.707 182.68 251.147 182.68C253.027 182.68 254.627 182.2 255.947 181.16V178.04C254.547 177.4 253.067 177.12 251.347 177.12C248.707 177.12 247.107 178.16 247.107 179.92ZM267.48 162.56C265.84 162.56 264.52 161.24 264.52 159.64C264.52 158 265.84 156.72 267.48 156.72C269.08 156.72 270.4 158 270.4 159.64C270.4 161.24 269.08 162.56 267.48 162.56ZM264.92 186V165.28H270V186H264.92ZM274.113 186V158L279.193 157.12V186H274.113ZM291.13 194.16V165.28H296.13V167.08C297.81 165.72 299.89 165 302.13 165C308.05 165 312.65 169.68 312.65 175.64C312.65 181.64 308.01 186.28 302.01 186.28C299.89 186.28 297.89 185.68 296.21 184.52V194.16H291.13ZM301.37 181.96C304.97 181.96 307.69 179.24 307.69 175.68C307.69 172.08 304.93 169.36 301.37 169.36C299.29 169.36 297.45 170.08 296.21 171.48V179.88C297.45 181.2 299.33 181.96 301.37 181.96ZM322.625 186.36C318.145 186.36 315.065 183.76 315.065 180C315.065 176.08 318.185 173.76 323.465 173.76C325.305 173.76 327.105 174.04 328.705 174.64V172.96C328.705 170.4 327.145 169.12 324.145 169.12C322.385 169.12 320.425 169.64 317.825 170.84L315.985 167.08C319.185 165.6 322.065 164.88 324.985 164.88C330.545 164.88 333.705 167.64 333.705 172.48V186H328.705V184.44C326.945 185.76 324.985 186.36 322.625 186.36ZM319.865 179.92C319.865 181.6 321.465 182.68 323.905 182.68C325.785 182.68 327.385 182.2 328.705 181.16V178.04C327.305 177.4 325.825 177.12 324.105 177.12C321.465 177.12 319.865 178.16 319.865 179.92ZM337.678 186V165.28H342.758V167.68C344.078 165.84 345.998 164.84 348.318 164.84C349.398 164.84 349.958 164.96 350.558 165.24V169.72C349.758 169.4 348.798 169.2 347.878 169.2C345.638 169.2 343.838 170.36 342.758 172.44V186H337.678ZM362.876 186.32C358.436 186.32 356.116 184.28 356.116 180.36V169.52H351.836V165.28H356.116V160L361.156 158.84V165.28H367.156V169.52H361.156V179.28C361.156 181.28 361.956 182.04 364.076 182.04C365.156 182.04 365.956 181.92 366.996 181.56V185.72C365.876 186.08 364.076 186.32 362.876 186.32ZM369.617 186V165.28H374.697V167.08C376.257 165.64 378.297 164.88 380.617 164.88C385.417 164.88 388.777 168.28 388.777 173.12V186H383.737V173.88C383.737 171.04 381.937 169.28 379.177 169.28C377.257 169.28 375.697 170.08 374.697 171.52V186H369.617ZM402.875 186.4C396.635 186.4 391.835 181.68 391.835 175.64C391.835 169.64 396.475 164.96 402.395 164.96C408.235 164.96 412.595 169.68 412.595 176V177.32H396.955C397.635 180.12 400.035 182.12 403.115 182.12C404.995 182.12 406.715 181.48 407.835 180.4L411.155 183.48C408.635 185.48 406.115 186.4 402.875 186.4ZM396.915 173.68H407.595C406.995 171.04 404.875 169.16 402.275 169.16C399.595 169.16 397.555 170.92 396.915 173.68ZM415.775 186V165.28H420.855V167.68C422.175 165.84 424.095 164.84 426.415 164.84C427.495 164.84 428.055 164.96 428.655 165.24V169.72C427.855 169.4 426.895 169.2 425.975 169.2C423.735 169.2 421.935 170.36 420.855 172.44V186H415.775Z" fill="url(#paint0_linear_166_312)"/>
<path d="M571.584 147V130.2H574.656L583.272 141.504V130.2H586.296V147H583.464L574.608 135.336V147H571.584ZM595.095 147.24C591.351 147.24 588.471 144.408 588.471 140.784C588.471 137.184 591.255 134.376 594.807 134.376C598.311 134.376 600.927 137.208 600.927 141V141.792H591.543C591.951 143.472 593.391 144.672 595.239 144.672C596.367 144.672 597.399 144.288 598.071 143.64L600.063 145.488C598.551 146.688 597.039 147.24 595.095 147.24ZM591.519 139.608H597.927C597.567 138.024 596.295 136.896 594.735 136.896C593.127 136.896 591.903 137.952 591.519 139.608ZM600.577 147L605.353 140.664L600.721 134.568H604.273L607.129 138.432L609.985 134.568H613.393L608.809 140.616L613.681 147H610.129L607.057 142.872L603.985 147H600.577ZM616.332 132.936C615.348 132.936 614.556 132.144 614.556 131.184C614.556 130.2 615.348 129.432 616.332 129.432C617.292 129.432 618.084 130.2 618.084 131.184C618.084 132.144 617.292 132.936 616.332 132.936ZM614.796 147V134.568H617.844V147H614.796ZM626.551 152.136C624.655 152.136 622.855 151.728 621.415 150.984L622.495 148.608C623.887 149.304 625.159 149.616 626.479 149.616C628.471 149.616 629.527 148.728 629.527 147V145.896C628.519 146.664 627.319 147.072 626.023 147.072C622.519 147.072 619.759 144.288 619.759 140.712C619.759 137.16 622.543 134.376 626.119 134.376C627.367 134.376 628.567 134.76 629.551 135.456V134.568H632.575V147.024C632.575 150.312 630.439 152.136 626.551 152.136ZM626.479 144.48C627.727 144.48 628.783 144.048 629.527 143.256V138.216C628.783 137.448 627.703 136.992 626.503 136.992C624.367 136.992 622.735 138.6 622.735 140.712C622.735 142.848 624.367 144.48 626.479 144.48ZM641.061 147.24C637.365 147.24 634.485 144.408 634.485 140.808C634.485 137.184 637.365 134.352 641.061 134.352C644.757 134.352 647.661 137.184 647.661 140.808C647.661 144.408 644.757 147.24 641.061 147.24ZM641.061 144.6C643.101 144.6 644.685 142.92 644.685 140.808C644.685 138.648 643.077 136.992 641.061 136.992C639.045 136.992 637.461 138.648 637.461 140.808C637.461 142.92 639.045 144.6 641.061 144.6Z" fill="url(#paint1_linear_166_312)"/>
<path d="M571.32 174V161.568H574.368V163.008C575.16 161.904 576.312 161.304 577.704 161.304C578.352 161.304 578.688 161.376 579.048 161.544V164.232C578.568 164.04 577.992 163.92 577.44 163.92C576.096 163.92 575.016 164.616 574.368 165.864V174H571.32ZM586.212 174.24C582.468 174.24 579.588 171.408 579.588 167.784C579.588 164.184 582.372 161.376 585.924 161.376C589.428 161.376 592.044 164.208 592.044 168V168.792H582.66C583.068 170.472 584.508 171.672 586.356 171.672C587.484 171.672 588.516 171.288 589.188 170.64L591.18 172.488C589.668 173.688 588.156 174.24 586.212 174.24ZM582.636 166.608H589.044C588.684 165.024 587.412 163.896 585.852 163.896C584.244 163.896 583.02 164.952 582.636 166.608ZM599.337 174.192C596.673 174.192 595.281 172.968 595.281 170.616V164.112H592.713V161.568H595.281V158.4L598.305 157.704V161.568H601.905V164.112H598.305V169.968C598.305 171.168 598.785 171.624 600.057 171.624C600.705 171.624 601.185 171.552 601.809 171.336V173.832C601.137 174.048 600.057 174.192 599.337 174.192ZM607.342 174.216C604.654 174.216 602.806 172.656 602.806 170.4C602.806 168.048 604.678 166.656 607.846 166.656C608.95 166.656 610.03 166.824 610.99 167.184V166.176C610.99 164.64 610.054 163.872 608.254 163.872C607.198 163.872 606.022 164.184 604.462 164.904L603.358 162.648C605.278 161.76 607.006 161.328 608.758 161.328C612.094 161.328 613.99 162.984 613.99 165.888V174H610.99V173.064C609.934 173.856 608.758 174.216 607.342 174.216ZM605.686 170.352C605.686 171.36 606.646 172.008 608.11 172.008C609.238 172.008 610.198 171.72 610.99 171.096V169.224C610.15 168.84 609.262 168.672 608.23 168.672C606.646 168.672 605.686 169.296 605.686 170.352ZM617.909 159.936C616.925 159.936 616.133 159.144 616.133 158.184C616.133 157.2 616.925 156.432 617.909 156.432C618.869 156.432 619.661 157.2 619.661 158.184C619.661 159.144 618.869 159.936 617.909 159.936ZM616.373 174V161.568H619.421V174H616.373ZM621.889 174V157.2L624.937 156.672V174H621.889ZM632.099 178.896V161.568H635.099V162.648C636.107 161.832 637.355 161.4 638.699 161.4C642.251 161.4 645.011 164.208 645.011 167.784C645.011 171.384 642.227 174.168 638.627 174.168C637.355 174.168 636.155 173.808 635.147 173.112V178.896H632.099ZM638.243 171.576C640.403 171.576 642.035 169.944 642.035 167.808C642.035 165.648 640.379 164.016 638.243 164.016C636.995 164.016 635.891 164.448 635.147 165.288V170.328C635.891 171.12 637.019 171.576 638.243 171.576ZM650.996 174.216C648.308 174.216 646.46 172.656 646.46 170.4C646.46 168.048 648.332 166.656 651.5 166.656C652.604 166.656 653.684 166.824 654.644 167.184V166.176C654.644 164.64 653.708 163.872 651.908 163.872C650.852 163.872 649.676 164.184 648.116 164.904L647.012 162.648C648.932 161.76 650.66 161.328 652.412 161.328C655.748 161.328 657.644 162.984 657.644 165.888V174H654.644V173.064C653.588 173.856 652.412 174.216 650.996 174.216ZM649.34 170.352C649.34 171.36 650.3 172.008 651.764 172.008C652.892 172.008 653.852 171.72 654.644 171.096V169.224C653.804 168.84 652.916 168.672 651.884 168.672C650.3 168.672 649.34 169.296 649.34 170.352ZM660.028 174V161.568H663.076V163.008C663.868 161.904 665.02 161.304 666.412 161.304C667.06 161.304 667.396 161.376 667.756 161.544V164.232C667.276 164.04 666.7 163.92 666.148 163.92C664.804 163.92 663.724 164.616 663.076 165.864V174H660.028ZM675.147 174.192C672.483 174.192 671.091 172.968 671.091 170.616V164.112H668.523V161.568H671.091V158.4L674.115 157.704V161.568H677.715V164.112H674.115V169.968C674.115 171.168 674.595 171.624 675.867 171.624C676.515 171.624 676.995 171.552 677.619 171.336V173.832C676.947 174.048 675.867 174.192 675.147 174.192ZM679.192 174V161.568H682.24V162.648C683.176 161.784 684.4 161.328 685.792 161.328C688.672 161.328 690.688 163.368 690.688 166.272V174H687.664V166.728C687.664 165.024 686.584 163.968 684.928 163.968C683.776 163.968 682.84 164.448 682.24 165.312V174H679.192ZM699.146 174.24C695.402 174.24 692.522 171.408 692.522 167.784C692.522 164.184 695.306 161.376 698.858 161.376C702.362 161.376 704.978 164.208 704.978 168V168.792H695.594C696.002 170.472 697.442 171.672 699.29 171.672C700.418 171.672 701.45 171.288 702.122 170.64L704.114 172.488C702.602 173.688 701.09 174.24 699.146 174.24ZM695.57 166.608H701.978C701.618 165.024 700.346 163.896 698.786 163.896C697.178 163.896 695.954 164.952 695.57 166.608ZM706.886 174V161.568H709.934V163.008C710.726 161.904 711.878 161.304 713.27 161.304C713.918 161.304 714.254 161.376 714.614 161.544V164.232C714.134 164.04 713.558 163.92 713.006 163.92C711.662 163.92 710.582 164.616 709.934 165.864V174H706.886Z" fill="#2F2219"/>
<path d="M797.135 121H800.817L802.659 122.228L803.886 124.069L804.193 124.989V128.058L802.966 130.206L800.204 133.275L789.156 144.323H788.542L787.929 145.55L786.087 147.085L783.939 149.54L776.574 156.905L774.119 159.053L760.003 173.169L757.854 175.624L755.706 177.772L753.865 178.693H750.183L747.728 176.545L746.5 174.397V172.249L748.648 168.873L751.103 166.111H751.717L752.331 164.884L762.765 154.45L763.992 152.915L765.526 151.381H766.14L766.754 150.153L771.664 145.243L774.119 143.095L776.881 140.333H777.495L778.108 139.106L794.68 122.534L797.135 121Z" fill="white"/>
<path d="M797.749 143.095H799.897L802.352 144.323L803.886 146.164L804.193 146.778V150.767L802.966 152.608L799.283 156.598L792.839 163.042H792.225V163.656L789.77 165.804L785.78 169.794L785.474 170.407H784.86V171.021L778.722 177.159H778.108V177.772L776.574 178.693H772.585L770.743 177.466L769.209 175.011L768.595 173.783L768.902 172.249L770.743 168.873L784.246 155.37L785.474 153.836L787.622 151.995L789.77 149.54L791.304 148.005L794.68 144.936L797.749 143.095Z" fill="white"/>
<path d="M751.103 121H753.558L756.627 122.841L768.595 134.81L770.13 137.571V140.026L767.368 143.402L765.833 145.243L763.378 147.392L761.844 149.233L759.389 151.381L755.706 155.063L752.638 156.598L749.569 155.984L747.114 153.529L746.5 152.302V150.153L748.034 147.085L752.024 142.481L755.706 139.106L755.399 137.571L751.717 133.582L749.262 131.434L747.114 128.365L746.807 127.751V124.989L748.648 122.534L751.103 121Z" fill="white"/>
<path d="M798.669 165.497L800.817 165.804L803.272 167.032L804.5 169.487V172.556L803.272 175.011L801.738 176.545L799.283 178.693L798.056 179H794.987L793.145 178.079L791.611 175.624L791.304 173.783L791.918 171.021L793.759 168.259L796.828 166.111L798.669 165.497Z" fill="white"/>
<defs>
<linearGradient id="paint0_linear_166_312" x1="82.4386" y1="101" x2="153.938" y2="189.795" gradientUnits="userSpaceOnUse">
<stop stop-color="#997B5D"/>
<stop offset="1" stop-color="#2F2219"/>
</linearGradient>
<linearGradient id="paint1_linear_166_312" x1="581.123" y1="125" x2="621.866" y2="158.738" gradientUnits="userSpaceOnUse">
<stop stop-color="#997B5D"/>
<stop offset="1" stop-color="#2F2219"/>
</linearGradient>
</defs>
</svg>
