<svg width="900" height="300" viewBox="0 0 900 300" fill="none" xmlns="http://www.w3.org/2000/svg">
<g clip-path="url(#clip0_158_298)">
<rect width="900" height="300" fill="#1C1C1C"/>
<path d="M200 121.897C292.804 86.5563 417.31 112.807 499.383 160.095C572.065 201.972 632.498 266.254 658.951 343.74C673.296 385.763 672.597 470.444 600 449.813C529.203 429.694 476.027 355.879 441.358 299.371C403.027 236.894 352.437 142.799 372.531 66.6564C390.197 -0.287892 469.541 -45.0725 530.864 -69.6816C614.488 -103.24 691.789 -90.7396 758.025 -32.0711C788.991 -4.6426 906.491 159.73 795.062 168.91C750.917 172.547 702.067 137.217 670.679 113.082C618.953 73.3075 599.005 30.4119 616.358 -32.3649C636.71 -105.99 716.576 -182.596 799.383 -192.209C840.467 -196.979 886.842 -180.132 900 -142.552" stroke="white" stroke-opacity="0.03" stroke-width="71" stroke-linecap="square"/>
<path d="M66.7999 107V77.304H89.4537V82.2675H72.4846V89.8187H83.6842V94.6125H72.4846V107H66.7999ZM94.9959 82.1402C93.2565 82.1402 91.8566 80.7403 91.8566 79.0433C91.8566 77.304 93.2565 75.9465 94.9959 75.9465C96.6928 75.9465 98.0927 77.304 98.0927 79.0433C98.0927 80.7403 96.6928 82.1402 94.9959 82.1402ZM92.2808 107V85.025H97.6685V107H92.2808ZM102.03 107V85.025H107.417V86.934C109.072 85.4068 111.236 84.6007 113.696 84.6007C118.787 84.6007 122.35 88.2067 122.35 93.3398V107H117.005V94.1459C117.005 91.1339 115.096 89.2672 112.169 89.2672C110.133 89.2672 108.478 90.1157 107.417 91.6429V107H102.03ZM136.708 107.297C130.472 107.297 125.593 102.333 125.593 96.0125C125.593 89.6491 130.514 84.728 136.877 84.728C139.083 84.728 141.247 85.3643 143.029 86.5946V77.304L148.417 76.3707V107H143.071V105.091C141.332 106.533 139.126 107.297 136.708 107.297ZM137.556 102.715C139.762 102.715 141.671 101.909 143.029 100.424V91.5157C141.714 90.1157 139.72 89.3097 137.556 89.3097C133.781 89.3097 130.853 92.1944 130.853 95.9701C130.853 99.7881 133.781 102.715 137.556 102.715ZM161.064 115.654V85.025H166.367V86.934C168.148 85.4916 170.354 84.728 172.73 84.728C179.009 84.728 183.887 89.6915 183.887 96.0125C183.887 102.376 178.966 107.297 172.603 107.297C170.354 107.297 168.233 106.661 166.452 105.43V115.654H161.064ZM171.924 102.715C175.742 102.715 178.627 99.8305 178.627 96.0549C178.627 92.2368 175.7 89.3521 171.924 89.3521C169.718 89.3521 167.767 90.1157 166.452 91.6005V100.509C167.767 101.909 169.761 102.715 171.924 102.715ZM187.26 107V85.025H192.648V87.5703C194.048 85.6189 196.084 84.5583 198.544 84.5583C199.69 84.5583 200.284 84.6856 200.92 84.9825V89.7339C200.072 89.3945 199.053 89.1824 198.078 89.1824C195.702 89.1824 193.793 90.4127 192.648 92.6187V107H187.26ZM213.498 107.424C206.965 107.424 201.875 102.418 201.875 96.0549C201.875 89.6491 206.965 84.6432 213.498 84.6432C220.032 84.6432 225.165 89.6491 225.165 96.0549C225.165 102.418 220.032 107.424 213.498 107.424ZM213.498 102.758C217.104 102.758 219.904 99.7881 219.904 96.0549C219.904 92.2368 217.062 89.3097 213.498 89.3097C209.935 89.3097 207.135 92.2368 207.135 96.0549C207.135 99.7881 209.935 102.758 213.498 102.758ZM238.647 107.297C232.411 107.297 227.532 102.333 227.532 96.0125C227.532 89.6491 232.453 84.728 238.817 84.728C241.023 84.728 243.186 85.3643 244.968 86.5946V77.304L250.356 76.3707V107H245.01V105.091C243.271 106.533 241.065 107.297 238.647 107.297ZM239.495 102.715C241.701 102.715 243.61 101.909 244.968 100.424V91.5157C243.653 90.1157 241.659 89.3097 239.495 89.3097C235.72 89.3097 232.793 92.1944 232.793 95.9701C232.793 99.7881 235.72 102.715 239.495 102.715ZM263.231 107.424C258.14 107.424 254.577 103.861 254.577 98.7275V85.025H259.922V97.8791C259.922 100.891 261.831 102.8 264.758 102.8C266.837 102.8 268.449 101.909 269.51 100.382V85.025H274.897V107H269.51V105.091C267.855 106.618 265.734 107.424 263.231 107.424ZM289.721 107.424C283.273 107.424 278.267 102.461 278.267 96.0125C278.267 89.6066 283.273 84.6007 289.721 84.6007C293.158 84.6007 296.467 86.0007 298.715 88.4612L295.406 91.9823C293.794 90.2005 291.927 89.3097 289.806 89.3097C286.285 89.3097 283.57 92.2368 283.57 96.0125C283.57 99.8305 286.328 102.715 289.934 102.715C291.97 102.715 293.709 101.909 295.364 100.17L298.588 103.564C296.297 105.982 293.073 107.424 289.721 107.424ZM311.932 107.339C307.223 107.339 304.763 105.176 304.763 101.018V89.5218H300.224V85.025H304.763V79.4251L310.108 78.1949V85.025H316.472V89.5218H310.108V99.873C310.108 101.994 310.957 102.8 313.205 102.8C314.351 102.8 315.199 102.673 316.302 102.291V106.703C315.114 107.085 313.205 107.339 311.932 107.339ZM327.557 107.424C323.569 107.424 320.091 106.321 317.588 104.327L320.303 100.764C322.806 102.503 325.096 103.352 327.472 103.352C330.187 103.352 331.969 102.291 331.969 100.764C331.969 99.4912 331.078 98.77 329.042 98.473L324.884 97.8791C320.515 97.2003 318.266 95.0368 318.266 91.5157C318.266 87.3582 321.745 84.6432 327.26 84.6432C330.442 84.6432 333.496 85.5765 336.211 87.4006L333.581 90.9217C331.205 89.4369 329.042 88.7157 326.751 88.7157C324.545 88.7157 323.06 89.6915 323.06 91.0914C323.06 92.449 323.951 93.0853 326.199 93.4247L330.357 94.0186C334.684 94.6549 337.06 96.8185 337.06 100.255C337.06 104.37 332.987 107.424 327.557 107.424ZM69.6847 152V134.522H64.7636V130.025H69.6847V127.607C69.6847 122.771 72.5694 120.098 77.7874 120.098C78.9753 120.098 80.248 120.268 81.1388 120.522V125.061C80.1207 124.807 79.3571 124.722 78.4662 124.722C76.1754 124.722 75.0724 125.655 75.0724 127.734V130.025H81.1388V134.522H75.0724V152H69.6847ZM83.8708 152V130.025H89.2585V132.57C90.6585 130.619 92.6948 129.558 95.1553 129.558C96.3007 129.558 96.8946 129.686 97.531 129.983V134.734C96.6825 134.395 95.6644 134.182 94.6886 134.182C92.3129 134.182 90.4039 135.413 89.2585 137.619V152H83.8708ZM110.109 152.424C103.576 152.424 98.4855 147.418 98.4855 141.055C98.4855 134.649 103.576 129.643 110.109 129.643C116.642 129.643 121.776 134.649 121.776 141.055C121.776 147.418 116.642 152.424 110.109 152.424ZM110.109 147.758C113.715 147.758 116.515 144.788 116.515 141.055C116.515 137.237 113.673 134.31 110.109 134.31C106.546 134.31 103.746 137.237 103.746 141.055C103.746 144.788 106.546 147.758 110.109 147.758ZM125.119 152V130.025H130.506V131.849C132.076 130.364 134.07 129.601 136.361 129.601C139.246 129.601 141.579 130.873 143.021 132.995C144.845 130.789 147.306 129.601 150.318 129.601C155.239 129.601 158.675 133.207 158.675 138.34V152H153.33V139.146C153.33 136.134 151.591 134.267 148.918 134.267C147.051 134.267 145.524 135.073 144.464 136.643C144.506 137.194 144.591 137.746 144.591 138.34V152H139.203V139.146C139.203 136.134 137.506 134.267 134.834 134.267C133.009 134.267 131.525 134.988 130.506 136.473V152H125.119Z" fill="white"/>
<path d="M178.341 152L168.923 130.025H174.777L181.014 145.17L187.25 130.025H192.977L183.559 152H178.341ZM205.16 152.424C198.542 152.424 193.451 147.418 193.451 141.012C193.451 134.649 198.372 129.686 204.651 129.686C210.845 129.686 215.469 134.691 215.469 141.394V142.794H198.881C199.603 145.764 202.148 147.885 205.415 147.885C207.408 147.885 209.233 147.206 210.421 146.061L213.942 149.327C211.269 151.449 208.596 152.424 205.16 152.424ZM198.839 138.934H210.166C209.53 136.134 207.281 134.14 204.524 134.14C201.681 134.14 199.518 136.007 198.839 138.934ZM218.842 152V130.025H224.229V132.57C225.629 130.619 227.666 129.558 230.126 129.558C231.272 129.558 231.866 129.686 232.502 129.983V134.734C231.653 134.395 230.635 134.182 229.66 134.182C227.284 134.182 225.375 135.413 224.229 137.619V152H218.842ZM238.142 127.14C236.402 127.14 235.002 125.74 235.002 124.043C235.002 122.304 236.402 120.946 238.142 120.946C239.838 120.946 241.238 122.304 241.238 124.043C241.238 125.74 239.838 127.14 238.142 127.14ZM235.426 152V130.025H240.814V152H235.426ZM248.527 152V134.522H243.606V130.025H248.527V127.607C248.527 122.771 251.412 120.098 256.63 120.098C257.817 120.098 259.09 120.268 259.981 120.522V125.061C258.963 124.807 258.199 124.722 257.308 124.722C255.018 124.722 253.915 125.655 253.915 127.734V130.025H259.981V134.522H253.915V152H248.527ZM265.751 127.14C264.054 127.14 262.654 125.74 262.654 124.043C262.654 122.304 264.054 120.946 265.751 120.946C267.49 120.946 268.847 122.304 268.847 124.043C268.847 125.74 267.49 127.14 265.751 127.14ZM263.078 152V130.025H268.423V152H263.078ZM283.43 152.424C276.812 152.424 271.722 147.418 271.722 141.012C271.722 134.649 276.643 129.686 282.921 129.686C289.115 129.686 293.739 134.691 293.739 141.394V142.794H277.152C277.873 145.764 280.418 147.885 283.685 147.885C285.679 147.885 287.503 147.206 288.691 146.061L292.212 149.327C289.539 151.449 286.866 152.424 283.43 152.424ZM277.109 138.934H288.436C287.8 136.134 285.551 134.14 282.794 134.14C279.952 134.14 277.788 136.007 277.109 138.934ZM307.375 152.297C301.139 152.297 296.261 147.333 296.261 141.012C296.261 134.649 301.182 129.728 307.545 129.728C309.751 129.728 311.915 130.364 313.696 131.595V122.304L319.084 121.371V152H313.739V150.091C311.999 151.533 309.793 152.297 307.375 152.297ZM308.224 147.715C310.43 147.715 312.339 146.909 313.696 145.424V136.516C312.381 135.116 310.387 134.31 308.224 134.31C304.448 134.31 301.521 137.194 301.521 140.97C301.521 144.788 304.448 147.715 308.224 147.715ZM331.731 152V130.025H337.119V131.849C338.689 130.364 340.683 129.601 342.973 129.601C345.858 129.601 348.191 130.873 349.634 132.995C351.458 130.789 353.918 129.601 356.93 129.601C361.852 129.601 365.288 133.207 365.288 138.34V152H359.942V139.146C359.942 136.134 358.203 134.267 355.531 134.267C353.664 134.267 352.137 135.073 351.076 136.643C351.119 137.194 351.203 137.746 351.203 138.34V152H345.816V139.146C345.816 136.134 344.119 134.267 341.446 134.267C339.622 134.267 338.137 134.988 337.119 136.473V152H331.731ZM380.26 152.424C373.642 152.424 368.552 147.418 368.552 141.012C368.552 134.649 373.473 129.686 379.751 129.686C385.945 129.686 390.569 134.691 390.569 141.394V142.794H373.982C374.703 145.764 377.248 147.885 380.515 147.885C382.509 147.885 384.333 147.206 385.521 146.061L389.042 149.327C386.369 151.449 383.697 152.424 380.26 152.424ZM373.939 138.934H385.266C384.63 136.134 382.382 134.14 379.624 134.14C376.782 134.14 374.618 136.007 373.939 138.934ZM393.942 152V130.025H399.33V132.57C400.73 130.619 402.766 129.558 405.227 129.558C406.372 129.558 406.966 129.686 407.602 129.983V134.734C406.754 134.395 405.736 134.182 404.76 134.182C402.384 134.182 400.475 135.413 399.33 137.619V152H393.942ZM420.011 152.424C413.563 152.424 408.557 147.461 408.557 141.012C408.557 134.607 413.563 129.601 420.011 129.601C423.447 129.601 426.756 131.001 429.005 133.461L425.696 136.982C424.084 135.201 422.217 134.31 420.096 134.31C416.575 134.31 413.86 137.237 413.86 141.012C413.86 144.831 416.617 147.715 420.223 147.715C422.259 147.715 423.999 146.909 425.653 145.17L428.877 148.564C426.586 150.982 423.362 152.424 420.011 152.424ZM431.669 152V122.304L437.056 121.116V131.934C438.711 130.407 440.874 129.601 443.335 129.601C448.426 129.601 451.989 133.207 451.989 138.34V152H446.644V139.146C446.644 136.134 444.735 134.267 441.808 134.267C439.771 134.267 438.117 135.116 437.056 136.643V152H431.669ZM463.207 152.382C458.456 152.382 455.189 149.624 455.189 145.637C455.189 141.479 458.498 139.019 464.098 139.019C466.05 139.019 467.959 139.316 469.656 139.952V138.17C469.656 135.455 468.001 134.098 464.819 134.098C462.953 134.098 460.874 134.649 458.117 135.922L456.165 131.934C459.559 130.364 462.613 129.601 465.71 129.601C471.607 129.601 474.958 132.528 474.958 137.661V152H469.656V150.346C467.789 151.745 465.71 152.382 463.207 152.382ZM460.28 145.552C460.28 147.333 461.977 148.479 464.565 148.479C466.559 148.479 468.256 147.97 469.656 146.867V143.558C468.171 142.879 466.601 142.582 464.777 142.582C461.977 142.582 460.28 143.685 460.28 145.552ZM479.172 152V130.025H484.56V131.934C486.214 130.407 488.378 129.601 490.839 129.601C495.929 129.601 499.493 133.207 499.493 138.34V152H494.148V139.146C494.148 136.134 492.239 134.267 489.311 134.267C487.275 134.267 485.621 135.116 484.56 136.643V152H479.172ZM513.229 152.339C508.52 152.339 506.059 150.176 506.059 146.018V134.522H501.52V130.025H506.059V124.425L511.405 123.195V130.025H517.768V134.522H511.405V144.873C511.405 146.994 512.253 147.8 514.502 147.8C515.647 147.8 516.495 147.673 517.598 147.291V151.703C516.411 152.085 514.502 152.339 513.229 152.339ZM528.853 152.424C524.866 152.424 521.387 151.321 518.884 149.327L521.599 145.764C524.102 147.503 526.393 148.352 528.769 148.352C531.484 148.352 533.265 147.291 533.265 145.764C533.265 144.491 532.375 143.77 530.338 143.473L526.181 142.879C521.811 142.2 519.563 140.037 519.563 136.516C519.563 132.358 523.041 129.643 528.556 129.643C531.738 129.643 534.793 130.576 537.508 132.401L534.877 135.922C532.502 134.437 530.338 133.716 528.047 133.716C525.841 133.716 524.357 134.691 524.357 136.091C524.357 137.449 525.247 138.085 527.496 138.425L531.653 139.019C535.98 139.655 538.356 141.819 538.356 145.255C538.356 149.37 534.284 152.424 528.853 152.424Z" fill="#FFE11B"/>
<rect x="64" y="178" width="243.946" height="52.7837" rx="26.3918" fill="#333333"/>
<path d="M279.888 200.142C279.921 199.894 279.938 199.646 279.938 199.399C279.938 196.005 276.881 193.282 273.489 193.742C272.5 191.983 270.617 190.839 268.526 190.839C266.434 190.839 264.551 191.983 263.563 193.742C260.163 193.282 257.113 196.005 257.113 199.399C257.113 199.646 257.13 199.894 257.163 200.142C255.404 201.132 254.26 203.015 254.26 205.105C254.26 207.195 255.404 209.078 257.163 210.068C257.13 210.315 257.113 210.563 257.113 210.812C257.113 214.205 260.163 216.922 263.563 216.468C264.551 218.227 266.434 219.371 268.526 219.371C270.617 219.371 272.5 218.227 273.489 216.468C276.881 216.922 279.938 214.205 279.938 210.812C279.938 210.565 279.921 210.316 279.888 210.068C281.647 209.078 282.791 207.195 282.791 205.105C282.791 203.015 281.647 201.132 279.888 200.142ZM267.035 211.405L261.804 206.107L263.835 204.104L267.055 207.365L273.228 201.239L275.236 203.265L267.035 211.405Z" fill="#FFE11B"/>
<path d="M95.3705 212.133L89.6785 198.152H92.155L96.7686 209.836L101.482 198.152H103.839L98.0668 212.133H95.3705ZM108.525 212.313C105.509 212.313 103.133 210.016 103.133 207.02C103.133 204.064 105.41 201.727 108.306 201.727C111.142 201.727 113.279 204.084 113.279 207.14V207.739H105.35C105.649 209.317 106.967 210.455 108.625 210.455C109.604 210.455 110.522 210.156 111.142 209.596L112.54 210.935C111.341 211.893 110.103 212.313 108.525 212.313ZM105.35 206.121H111.122C110.822 204.643 109.664 203.565 108.266 203.565C106.788 203.565 105.629 204.603 105.35 206.121ZM115.119 212.133V201.907H117.296V203.185C117.936 202.227 118.894 201.667 120.093 201.667C120.552 201.687 120.851 201.727 121.131 201.867V203.805C120.752 203.645 120.332 203.565 119.893 203.565C118.754 203.565 117.816 204.204 117.296 205.342V212.133H115.119ZM123.785 200.369C123.086 200.369 122.487 199.77 122.487 199.051C122.487 198.332 123.086 197.733 123.785 197.733C124.524 197.733 125.103 198.332 125.103 199.051C125.103 199.77 124.524 200.369 123.785 200.369ZM122.707 212.133V201.907H124.884V212.133H122.707ZM128.73 212.133V203.745H126.374V201.907H128.73V200.509C128.73 198.332 129.989 197.154 132.305 197.154C132.845 197.154 133.364 197.194 133.783 197.334V199.191C133.304 199.071 132.984 199.011 132.525 199.011C131.427 199.011 130.887 199.51 130.887 200.549V201.907H133.783V203.745H130.887V212.133H128.73ZM136.38 200.369C135.661 200.369 135.062 199.77 135.062 199.051C135.062 198.332 135.661 197.733 136.38 197.733C137.099 197.733 137.698 198.332 137.698 199.051C137.698 199.77 137.099 200.369 136.38 200.369ZM135.281 212.133V201.907H137.478V212.133H135.281ZM144.647 212.313C141.631 212.313 139.254 210.016 139.254 207.02C139.254 204.064 141.531 201.727 144.427 201.727C147.263 201.727 149.4 204.084 149.4 207.14V207.739H141.471C141.771 209.317 143.089 210.455 144.747 210.455C145.725 210.455 146.644 210.156 147.263 209.596L148.661 210.935C147.463 211.893 146.225 212.313 144.647 212.313ZM141.471 206.121H147.243C146.944 204.643 145.785 203.565 144.387 203.565C142.909 203.565 141.751 204.603 141.471 206.121ZM155.994 212.293C153.098 212.293 150.801 209.976 150.801 207C150.801 204.064 153.098 201.747 156.033 201.747C157.132 201.747 158.171 202.087 159.029 202.706V198.152L161.206 197.753V212.133H159.069V211.194C158.21 211.913 157.152 212.293 155.994 212.293ZM156.293 210.395C157.412 210.395 158.39 209.976 159.029 209.237V204.783C158.39 204.064 157.392 203.625 156.293 203.625C154.396 203.625 152.958 205.063 152.958 207C152.958 208.917 154.416 210.395 156.293 210.395ZM167.664 212.133V201.907H169.841V203.185C170.48 202.227 171.438 201.667 172.637 201.667C173.096 201.687 173.396 201.727 173.675 201.867V203.805C173.296 203.645 172.876 203.565 172.437 203.565C171.298 203.565 170.36 204.204 169.841 205.342V212.133H167.664ZM179.618 212.313C176.602 212.313 174.225 210.016 174.225 207.02C174.225 204.064 176.502 201.727 179.398 201.727C182.234 201.727 184.371 204.084 184.371 207.14V207.739H176.442C176.742 209.317 178.06 210.455 179.718 210.455C180.696 210.455 181.615 210.156 182.234 209.596L183.632 210.935C182.434 211.893 181.195 212.313 179.618 212.313ZM176.442 206.121H182.214C181.914 204.643 180.756 203.565 179.358 203.565C177.88 203.565 176.722 204.603 176.442 206.121ZM189.884 212.333C188.107 212.333 186.489 211.813 185.371 210.855L186.529 209.397C187.608 210.236 188.706 210.655 189.845 210.655C191.223 210.655 192.181 210.096 192.181 209.237C192.181 208.558 191.682 208.178 190.623 208.019L188.746 207.739C186.709 207.459 185.67 206.481 185.67 204.843C185.67 202.986 187.308 201.727 189.745 201.727C191.243 201.727 192.601 202.147 193.879 203.026L192.8 204.444C191.662 203.725 190.643 203.405 189.585 203.405C188.407 203.405 187.628 203.924 187.628 204.703C187.628 205.402 188.087 205.762 189.245 205.922L191.123 206.201C193.16 206.481 194.218 207.479 194.218 209.077C194.218 210.935 192.361 212.333 189.884 212.333ZM200.721 212.313C197.705 212.313 195.329 210.016 195.329 207.02C195.329 204.064 197.605 201.727 200.501 201.727C203.337 201.727 205.475 204.084 205.475 207.14V207.739H197.546C197.845 209.317 199.163 210.455 200.821 210.455C201.8 210.455 202.718 210.156 203.337 209.596L204.736 210.935C203.537 211.893 202.299 212.313 200.721 212.313ZM197.546 206.121H203.318C203.018 204.643 201.86 203.565 200.461 203.565C198.984 203.565 197.825 204.603 197.546 206.121ZM207.315 212.133V198.152L209.492 197.753V212.133H207.315ZM211.801 212.133V198.152L213.978 197.753V212.133H211.801ZM221.2 212.313C218.185 212.313 215.808 210.016 215.808 207.02C215.808 204.064 218.085 201.727 220.981 201.727C223.817 201.727 225.954 204.084 225.954 207.14V207.739H218.025C218.324 209.317 219.643 210.455 221.3 210.455C222.279 210.455 223.198 210.156 223.817 209.596L225.215 210.935C224.017 211.893 222.778 212.313 221.2 212.313ZM218.025 206.121H223.797C223.497 204.643 222.339 203.565 220.941 203.565C219.463 203.565 218.304 204.603 218.025 206.121ZM227.795 212.133V201.907H229.972V203.185C230.611 202.227 231.569 201.667 232.768 201.667C233.227 201.687 233.527 201.727 233.806 201.867V203.805C233.427 203.645 233.007 203.565 232.568 203.565C231.43 203.565 230.491 204.204 229.972 205.342V212.133H227.795Z" fill="white"/>
</g>
<defs>
<clipPath id="clip0_158_298">
<rect width="900" height="300" fill="white"/>
</clipPath>
</defs>
</svg>
