<svg width="900" height="300" viewBox="0 0 900 300" fill="none" xmlns="http://www.w3.org/2000/svg">
<g clip-path="url(#clip0_150_90)">
<rect width="900" height="300" fill="#3D1D20"/>
<path d="M200 203.897C292.804 168.556 417.31 194.807 499.383 242.095C572.065 283.972 632.498 348.254 658.951 425.74C673.296 467.763 672.597 552.444 600 531.813C529.203 511.694 476.027 437.879 441.358 381.371C403.027 318.894 352.437 224.799 372.531 148.656C390.197 81.7121 469.541 36.9275 530.864 12.3184C614.488 -21.2395 691.789 -8.73964 758.025 49.9289C788.991 77.3574 906.491 241.73 795.062 250.91C750.917 254.547 702.067 219.217 670.679 195.082C618.953 155.308 599.005 112.412 616.358 49.6351C636.71 -23.9901 716.576 -100.596 799.383 -110.209C840.467 -114.979 886.842 -98.1322 900 -60.5519" stroke="white" stroke-opacity="0.07" stroke-width="71" stroke-linecap="square"/>
<path d="M77.1935 144.424C72.4421 144.424 67.6908 142.558 64.1697 139.249L67.4787 135.176C70.8725 138.23 73.9694 139.588 77.5753 139.588C81.4782 139.588 83.9812 137.976 83.9812 135.515C83.9812 133.309 82.4964 132.249 78.7632 131.613L73.1633 130.637C67.9453 129.746 65.3151 127.073 65.3151 122.746C65.3151 117.316 69.7271 113.88 76.7693 113.88C81.0964 113.88 85.6357 115.407 88.9446 118.037L85.8902 122.279C82.7085 119.819 79.654 118.674 76.4299 118.674C72.9512 118.674 70.7028 120.116 70.7028 122.322C70.7028 124.316 71.9755 125.292 75.1996 125.801L80.5873 126.691C86.6538 127.667 89.581 130.425 89.581 135.006C89.581 140.733 84.7024 144.424 77.1935 144.424ZM92.5708 144V114.304L97.9585 113.116V123.934C99.613 122.407 101.777 121.601 104.237 121.601C109.328 121.601 112.891 125.207 112.891 130.34V144H107.546V131.146C107.546 128.134 105.637 126.267 102.71 126.267C100.674 126.267 99.0191 127.116 97.9585 128.643V144H92.5708ZM127.758 144.424C121.225 144.424 116.134 139.418 116.134 133.055C116.134 126.649 121.225 121.643 127.758 121.643C134.291 121.643 139.424 126.649 139.424 133.055C139.424 139.418 134.291 144.424 127.758 144.424ZM127.758 139.758C131.364 139.758 134.164 136.788 134.164 133.055C134.164 129.237 131.321 126.31 127.758 126.31C124.194 126.31 121.394 129.237 121.394 133.055C121.394 136.788 124.194 139.758 127.758 139.758ZM142.767 152.654V122.025H148.07V123.934C149.852 122.492 152.058 121.728 154.434 121.728C160.712 121.728 165.591 126.691 165.591 133.012C165.591 139.376 160.67 144.297 154.306 144.297C152.058 144.297 149.937 143.661 148.155 142.43V152.654H142.767ZM153.628 139.715C157.446 139.715 160.33 136.831 160.33 133.055C160.33 129.237 157.403 126.352 153.628 126.352C151.422 126.352 149.47 127.116 148.155 128.601V137.509C149.47 138.909 151.464 139.715 153.628 139.715ZM187.911 144.424C181.377 144.424 176.287 139.418 176.287 133.055C176.287 126.649 181.377 121.643 187.911 121.643C194.444 121.643 199.577 126.649 199.577 133.055C199.577 139.418 194.444 144.424 187.911 144.424ZM187.911 139.758C191.516 139.758 194.316 136.788 194.316 133.055C194.316 129.237 191.474 126.31 187.911 126.31C184.347 126.31 181.547 129.237 181.547 133.055C181.547 136.788 184.347 139.758 187.911 139.758ZM202.92 144V122.025H208.308V123.934C209.962 122.407 212.126 121.601 214.586 121.601C219.677 121.601 223.24 125.207 223.24 130.34V144H217.895V131.146C217.895 128.134 215.986 126.267 213.059 126.267C211.023 126.267 209.368 127.116 208.308 128.643V144H202.92ZM227.459 144V114.304L232.847 113.371V144H227.459ZM239.923 119.14C238.184 119.14 236.784 117.74 236.784 116.043C236.784 114.304 238.184 112.946 239.923 112.946C241.62 112.946 243.02 114.304 243.02 116.043C243.02 117.74 241.62 119.14 239.923 119.14ZM237.208 144V122.025H242.596V144H237.208ZM246.957 144V122.025H252.345V123.934C253.999 122.407 256.163 121.601 258.623 121.601C263.714 121.601 267.277 125.207 267.277 130.34V144H261.932V131.146C261.932 128.134 260.023 126.267 257.096 126.267C255.06 126.267 253.405 127.116 252.345 128.643V144H246.957ZM282.229 144.424C275.611 144.424 270.52 139.418 270.52 133.012C270.52 126.649 275.441 121.686 281.72 121.686C287.913 121.686 292.538 126.691 292.538 133.394V134.794H275.95C276.671 137.764 279.217 139.885 282.483 139.885C284.477 139.885 286.301 139.206 287.489 138.061L291.01 141.327C288.338 143.449 285.665 144.424 282.229 144.424ZM275.908 130.934H287.235C286.598 128.134 284.35 126.14 281.592 126.14C278.75 126.14 276.587 128.007 275.908 130.934ZM73.333 189.382C68.5817 189.382 65.3151 186.624 65.3151 182.637C65.3151 178.479 68.6241 176.019 74.2239 176.019C76.1754 176.019 78.0844 176.316 79.7813 176.952V175.17C79.7813 172.455 78.1268 171.098 74.9451 171.098C73.0785 171.098 70.9998 171.649 68.2423 172.922L66.2908 168.934C69.6847 167.364 72.7391 166.601 75.836 166.601C81.7328 166.601 85.0842 169.528 85.0842 174.661V189H79.7813V187.346C77.9147 188.745 75.836 189.382 73.333 189.382ZM70.4059 182.552C70.4059 184.333 72.1028 185.479 74.6906 185.479C76.6844 185.479 78.3813 184.97 79.7813 183.867V180.558C78.2965 179.879 76.7269 179.582 74.9027 179.582C72.1028 179.582 70.4059 180.685 70.4059 182.552ZM98.8156 189.339C94.1066 189.339 91.6461 187.176 91.6461 183.018V171.522H87.1069V167.025H91.6461V161.425L96.9914 160.195V167.025H103.355V171.522H96.9914V181.873C96.9914 183.994 97.8399 184.8 100.088 184.8C101.234 184.8 102.082 184.673 103.185 184.291V188.703C101.997 189.085 100.088 189.339 98.8156 189.339ZM124.404 189.339C119.695 189.339 117.234 187.176 117.234 183.018V171.522H112.695V167.025H117.234V161.425L122.579 160.195V167.025H128.943V171.522H122.579V181.873C122.579 183.994 123.428 184.8 125.676 184.8C126.822 184.8 127.67 184.673 128.773 184.291V188.703C127.585 189.085 125.676 189.339 124.404 189.339ZM131.553 189V159.304L136.941 158.116V168.934C138.596 167.407 140.759 166.601 143.22 166.601C148.31 166.601 151.874 170.207 151.874 175.34V189H146.529V176.146C146.529 173.134 144.62 171.267 141.692 171.267C139.656 171.267 138.002 172.116 136.941 173.643V189H131.553ZM166.825 189.424C160.207 189.424 155.117 184.418 155.117 178.012C155.117 171.649 160.038 166.686 166.316 166.686C172.51 166.686 177.134 171.691 177.134 178.394V179.794H160.547C161.268 182.764 163.813 184.885 167.08 184.885C169.074 184.885 170.898 184.206 172.086 183.061L175.607 186.327C172.934 188.449 170.262 189.424 166.825 189.424ZM160.504 175.934H171.831C171.195 173.134 168.947 171.14 166.189 171.14C163.347 171.14 161.183 173.007 160.504 175.934Z" fill="white"/>
<path d="M188.806 189V159.304L194.194 158.371V168.892C195.933 167.449 198.139 166.728 200.472 166.728C206.751 166.728 211.63 171.691 211.63 178.012C211.63 184.376 206.708 189.297 200.345 189.297C198.054 189.297 195.891 188.618 194.109 187.388V189H188.806ZM199.666 184.715C203.484 184.715 206.369 181.831 206.369 178.055C206.369 174.237 203.442 171.352 199.666 171.352C197.46 171.352 195.509 172.116 194.194 173.601V182.509C195.509 183.909 197.503 184.715 199.666 184.715ZM225.735 189.424C219.117 189.424 214.026 184.418 214.026 178.012C214.026 171.649 218.947 166.686 225.226 166.686C231.42 166.686 236.044 171.691 236.044 178.394V179.794H219.457C220.178 182.764 222.723 184.885 225.99 184.885C227.984 184.885 229.808 184.206 230.996 183.061L234.517 186.327C231.844 188.449 229.171 189.424 225.735 189.424ZM219.414 175.934H230.741C230.105 173.134 227.856 171.14 225.099 171.14C222.256 171.14 220.093 173.007 219.414 175.934ZM247.684 189.424C243.697 189.424 240.218 188.321 237.715 186.327L240.43 182.764C242.933 184.503 245.224 185.352 247.599 185.352C250.315 185.352 252.096 184.291 252.096 182.764C252.096 181.491 251.205 180.77 249.169 180.473L245.012 179.879C240.642 179.2 238.394 177.037 238.394 173.516C238.394 169.358 241.872 166.643 247.387 166.643C250.569 166.643 253.624 167.576 256.339 169.401L253.708 172.922C251.333 171.437 249.169 170.716 246.878 170.716C244.672 170.716 243.188 171.691 243.188 173.091C243.188 174.449 244.078 175.085 246.327 175.425L250.484 176.019C254.811 176.655 257.187 178.819 257.187 182.255C257.187 186.37 253.114 189.424 247.684 189.424ZM269.579 189.339C264.87 189.339 262.41 187.176 262.41 183.018V171.522H257.87V167.025H262.41V161.425L267.755 160.195V167.025H274.118V171.522H267.755V181.873C267.755 183.994 268.603 184.8 270.852 184.8C271.997 184.8 272.846 184.673 273.949 184.291V188.703C272.761 189.085 270.852 189.339 269.579 189.339ZM285.028 197.654V167.025H290.331V168.934C292.113 167.492 294.319 166.728 296.694 166.728C302.973 166.728 307.852 171.691 307.852 178.012C307.852 184.376 302.93 189.297 296.567 189.297C294.319 189.297 292.198 188.661 290.416 187.43V197.654H285.028ZM295.888 184.715C299.706 184.715 302.591 181.831 302.591 178.055C302.591 174.237 299.664 171.352 295.888 171.352C293.682 171.352 291.731 172.116 290.416 173.601V182.509C291.731 183.909 293.725 184.715 295.888 184.715ZM311.224 189V167.025H316.612V169.57C318.012 167.619 320.048 166.558 322.509 166.558C323.654 166.558 324.248 166.686 324.884 166.983V171.734C324.036 171.395 323.018 171.182 322.042 171.182C319.666 171.182 317.757 172.413 316.612 174.619V189H311.224ZM330.524 164.14C328.785 164.14 327.385 162.74 327.385 161.043C327.385 159.304 328.785 157.946 330.524 157.946C332.221 157.946 333.621 159.304 333.621 161.043C333.621 162.74 332.221 164.14 330.524 164.14ZM327.809 189V167.025H333.197V189H327.809ZM348.036 189.424C341.588 189.424 336.582 184.461 336.582 178.012C336.582 171.607 341.588 166.601 348.036 166.601C351.473 166.601 354.781 168.001 357.03 170.461L353.721 173.982C352.109 172.201 350.242 171.31 348.121 171.31C344.6 171.31 341.885 174.237 341.885 178.012C341.885 181.831 344.642 184.715 348.248 184.715C350.285 184.715 352.024 183.909 353.678 182.17L356.903 185.564C354.612 187.982 351.388 189.424 348.036 189.424ZM369.805 189.424C363.188 189.424 358.097 184.418 358.097 178.012C358.097 171.649 363.018 166.686 369.296 166.686C375.49 166.686 380.114 171.691 380.114 178.394V179.794H363.527C364.248 182.764 366.793 184.885 370.06 184.885C372.054 184.885 373.878 184.206 375.066 183.061L378.587 186.327C375.914 188.449 373.242 189.424 369.805 189.424ZM363.484 175.934H374.811C374.175 173.134 371.927 171.14 369.169 171.14C366.327 171.14 364.163 173.007 363.484 175.934ZM391.755 189.424C387.767 189.424 384.288 188.321 381.785 186.327L384.5 182.764C387.003 184.503 389.294 185.352 391.67 185.352C394.385 185.352 396.167 184.291 396.167 182.764C396.167 181.491 395.276 180.77 393.239 180.473L389.082 179.879C384.712 179.2 382.464 177.037 382.464 173.516C382.464 169.358 385.943 166.643 391.458 166.643C394.639 166.643 397.694 167.576 400.409 169.401L397.779 172.922C395.403 171.437 393.239 170.716 390.949 170.716C388.743 170.716 387.258 171.691 387.258 173.091C387.258 174.449 388.149 175.085 390.397 175.425L394.555 176.019C398.882 176.655 401.257 178.819 401.257 182.255C401.257 186.37 397.185 189.424 391.755 189.424ZM406.729 189.382C404.947 189.382 403.504 187.939 403.504 186.158C403.504 184.376 404.947 182.934 406.729 182.934C408.51 182.934 409.953 184.376 409.953 186.158C409.953 187.939 408.51 189.382 406.729 189.382Z" fill="#FE5000"/>
</g>
<defs>
<clipPath id="clip0_150_90">
<rect width="900" height="300" fill="white"/>
</clipPath>
</defs>
</svg>
